<?xml version="1.0" encoding="UTF-8" standalone="no"?>
<!-- Created with Inkscape (http://www.inkscape.org/) -->

<svg
   width="3840"
   height="2160"
   viewBox="0 0 3840 2160"
   version="1.1"
   id="svg1"
   inkscape:version="1.4 (86a8ad7, 2024-10-11)"
   sodipodi:docname="lab.svg"
   xmlns:inkscape="http://www.inkscape.org/namespaces/inkscape"
   xmlns:sodipodi="http://sodipodi.sourceforge.net/DTD/sodipodi-0.dtd"
   xmlns="http://www.w3.org/2000/svg"
   xmlns:svg="http://www.w3.org/2000/svg">
  <sodipodi:namedview
     id="namedview1"
     pagecolor="#ffffff"
     bordercolor="#000000"
     borderopacity="0.25"
     inkscape:showpageshadow="2"
     inkscape:pageopacity="0.0"
     inkscape:pagecheckerboard="0"
     inkscape:deskcolor="#2b2b2b"
     inkscape:document-units="px"
     inkscape:zoom="0.19897461"
     inkscape:cx="1789.173"
     inkscape:cy="841.81595"
     inkscape:window-width="1920"
     inkscape:window-height="1017"
     inkscape:window-x="1912"
     inkscape:window-y="-8"
     inkscape:window-maximized="1"
     inkscape:current-layer="layer1" />
  <defs
     id="defs1">
    <inkscape:path-effect
       effect="mirror_symmetry"
       start_point="936.5388,-23.35951"
       end_point="936.5388,1056.6405"
       center_point="936.5388,516.64049"
       id="path-effect12"
       is_visible="true"
       lpeversion="1.2"
       lpesatellites=""
       mode="vertical"
       discard_orig_path="false"
       fuse_paths="false"
       oposite_fuse="false"
       split_items="false"
       split_open="false"
       link_styles="false" />
    <inkscape:path-effect
       effect="mirror_symmetry"
       start_point="890.5388,-59.55583"
       end_point="890.5388,1020.4442"
       center_point="890.5388,480.44417"
       id="path-effect7"
       is_visible="true"
       lpeversion="1.2"
       lpesatellites=""
       mode="vertical"
       discard_orig_path="false"
       fuse_paths="false"
       oposite_fuse="false"
       split_items="false"
       split_open="false"
       link_styles="false" />
    <inkscape:path-effect
       effect="mirror_symmetry"
       start_point="960,0"
       end_point="960,1080"
       center_point="960,540"
       id="path-effect6"
       is_visible="false"
       lpeversion="1.2"
       lpesatellites=""
       mode="vertical"
       discard_orig_path="false"
       fuse_paths="false"
       oposite_fuse="false"
       split_items="false"
       split_open="false"
       link_styles="false" />
    <inkscape:path-effect
       effect="tiling"
       id="path-effect5"
       is_visible="true"
       lpeversion="1.3.1"
       unit="px"
       seed="1;1"
       lpesatellites=""
       num_rows="7"
       num_cols="1"
       gapx="0"
       gapy="50"
       offset="0"
       offset_type="false"
       scale="0"
       rotate="0"
       mirrorrowsx="false"
       mirrorrowsy="false"
       mirrorcolsx="false"
       mirrorcolsy="false"
       mirrortrans="false"
       shrink_interp="false"
       split_items="false"
       link_styles="false"
       interpolate_scalex="false"
       interpolate_scaley="true"
       interpolate_rotatex="false"
       interpolate_rotatey="true"
       random_scale="false"
       random_rotate="false"
       random_gap_y="false"
       random_gap_x="false"
       transformorigin="" />
    <inkscape:path-effect
       effect="clone_original"
       linkeditem=""
       id="path-effect4"
       is_visible="true"
       lpeversion="1"
       method="d"
       attributes=""
       css_properties=""
       allow_transforms="true" />
    <inkscape:path-effect
       effect="mirror_symmetry"
       start_point="-23.461199,516.64049"
       end_point="1896.5388,516.64049"
       center_point="936.5388,516.64049"
       id="path-effect3"
       is_visible="true"
       lpeversion="1.2"
       lpesatellites=""
       mode="horizontal"
       discard_orig_path="false"
       fuse_paths="false"
       oposite_fuse="false"
       split_items="false"
       split_open="false"
       link_styles="false" />
    <inkscape:path-effect
       effect="mirror_symmetry"
       start_point="765.46445,-23.783286"
       end_point="765.46445,1057.0225"
       center_point="765.46445,516.61961"
       id="path-effect2"
       is_visible="true"
       lpeversion="1.2"
       lpesatellites=""
       mode="vertical"
       discard_orig_path="false"
       fuse_paths="false"
       oposite_fuse="false"
       split_items="false"
       split_open="false"
       link_styles="false" />
  </defs>
  <g
     inkscape:label="Layer 1"
     inkscape:groupmode="layer"
     id="layer1">
    <rect
       style="fill:#332d58;fill-opacity:1;stroke:none;stroke-width:16.056;stroke-linecap:round"
       id="rect1"
       width="3840"
       height="2160"
       x="46.922398"
       y="46.719021" />
    <g
       id="g12"
       inkscape:path-effect="#path-effect12"
       transform="matrix(2,0,0,2,46.922399,46.719019)">
      <path
         style="fill:#3b337a;fill-opacity:1;stroke:#000000;stroke-width:8;stroke-linecap:round;stroke-dasharray:none;stroke-opacity:1"
         id="rect8"
         width="35.180367"
         height="182.18405"
         x="1588.2944"
         y="834.27728"
         sodipodi:type="rect"
         d="m 1588.2944,834.27728 h 35.1804 v 182.18402 h -35.1804 z m -1303.51123,0 H 249.6028 v 182.18402 h 35.18037 z" />
      <path
         style="fill:#3b337a;fill-opacity:1;stroke:#000000;stroke-width:8;stroke-linecap:round;stroke-dasharray:none;stroke-opacity:1"
         id="rect7"
         width="323.20596"
         height="33.575016"
         x="1498.9648"
         y="822.59515"
         sodipodi:type="rect"
         d="m 1498.9648,822.59515 h 323.206 v 33.57502 h -323.206 z m -1124.85204,0 H 50.906794 v 33.57502 H 374.11276 Z" />
    </g>
    <path
       style="fill:#3b337a;fill-opacity:1;stroke:#000000;stroke-width:8;stroke-linecap:round;stroke-dasharray:none;stroke-opacity:1"
       id="rect2"
       width="115.163"
       height="1074.6765"
       x="-42.478039"
       y="7.2745132"
       inkscape:path-effect="#path-effect2"
       sodipodi:type="rect"
       d="M -42.478039,7.2745132 H 72.684963 V 1081.951 H -42.478039 Z m 1615.884939,0 h -115.163 V 1081.951 h 115.163 z"
       transform="matrix(2.4224898,0,0,1.9985089,65.670176,47.531109)" />
    <path
       style="fill:#3b337a;fill-opacity:1;stroke:#000000;stroke-width:7.97601;stroke-linecap:round;stroke-dasharray:none;stroke-opacity:1"
       id="rect3"
       width="2005.3051"
       height="105.56511"
       x="-42.731018"
       y="-42.731014"
       inkscape:path-effect="#path-effect3"
       sodipodi:type="rect"
       d="M -42.731018,-42.731014 H 1962.574 V 62.834095 H -42.731018 Z m 0,1118.743014 H 1962.574 V 970.44689 H -42.731018 Z"
       transform="matrix(2,0,0,2,46.922399,46.719019)" />
    <path
       style="fill:#60b37e;fill-opacity:1;stroke:#000000;stroke-width:8;stroke-linecap:round;stroke-dasharray:none;stroke-opacity:1"
       id="path3"
       inkscape:path-effect="#path-effect5;#path-effect7"
       sodipodi:type="arc"
       sodipodi:cx="-2.3803103e-08"
       sodipodi:cy="119.36197"
       sodipodi:rx="33.924"
       sodipodi:ry="35.180367"
       d="M 33.924,119.36197 C 33.924,138.79155 18.735708,154.54234 -2.3803103e-8,154.54234 -18.735708,154.54234 -33.924,138.79155 -33.924,119.36197 -33.924,99.932389 -18.735708,84.181602 -2.3803103e-8,84.181602 18.735708,84.181602 33.924,99.932389 33.924,119.36197 Z m 0,120.36073 C 33.924,259.15228 18.735708,274.90307 -2.3803103e-8,274.90307 -18.735708,274.90307 -33.924,259.15228 -33.924,239.7227 -33.924,220.29312 -18.735708,204.54234 -2.3803103e-8,204.54234 18.735708,204.54234 33.924,220.29312 33.924,239.7227 Z m 0,120.36074 C 33.924,379.51301 18.735708,395.2638 -2.3803103e-8,395.2638 -18.735708,395.2638 -33.924,379.51301 -33.924,360.08344 -33.924,340.65386 -18.735708,324.90307 -2.3803103e-8,324.90307 18.735708,324.90307 33.924,340.65386 33.924,360.08344 Z m 0,120.36073 C 33.924,499.87375 18.735708,515.62453 -2.3803103e-8,515.62453 -18.735708,515.62453 -33.924,499.87375 -33.924,480.44417 -33.924,461.01459 -18.735708,445.2638 -2.3803103e-8,445.2638 18.735708,445.2638 33.924,461.01459 33.924,480.44417 Z m 0,120.36073 C 33.924,620.23448 18.735708,635.98527 -2.3803103e-8,635.98527 -18.735708,635.98527 -33.924,620.23448 -33.924,600.8049 -33.924,581.37532 -18.735708,565.62453 -2.3803103e-8,565.62453 18.735708,565.62453 33.924,581.37532 33.924,600.8049 Z m 0,120.36073 C 33.924,740.59521 18.735708,756.346 -2.3803103e-8,756.346 -18.735708,756.346 -33.924,740.59521 -33.924,721.16563 -33.924,701.73605 -18.735708,685.98527 -2.3803103e-8,685.98527 18.735708,685.98527 33.924,701.73605 33.924,721.16563 Z m 0,120.36074 C 33.924,860.95595 18.735708,876.70673 -2.3803103e-8,876.70673 -18.735708,876.70673 -33.924,860.95595 -33.924,841.52637 -33.924,822.09679 -18.735708,806.346 -2.3803103e-8,806.346 18.735708,806.346 33.924,822.09679 33.924,841.52637 Z m 1713.2296,-722.1644 c 0,19.42958 15.1883,35.18037 33.924,35.18037 18.7357,0 33.924,-15.75079 33.924,-35.18037 0,-19.429581 -15.1883,-35.180368 -33.924,-35.180368 -18.7357,0 -33.924,15.750787 -33.924,35.180368 z m 0,120.36073 c 0,19.42958 15.1883,35.18037 33.924,35.18037 18.7357,0 33.924,-15.75079 33.924,-35.18037 0,-19.42958 -15.1883,-35.18036 -33.924,-35.18036 -18.7357,0 -33.924,15.75078 -33.924,35.18036 z m 0,120.36074 c 0,19.42957 15.1883,35.18036 33.924,35.18036 18.7357,0 33.924,-15.75079 33.924,-35.18036 0,-19.42958 -15.1883,-35.18037 -33.924,-35.18037 -18.7357,0 -33.924,15.75079 -33.924,35.18037 z m 0,120.36073 c 0,19.42958 15.1883,35.18036 33.924,35.18036 18.7357,0 33.924,-15.75078 33.924,-35.18036 0,-19.42958 -15.1883,-35.18037 -33.924,-35.18037 -18.7357,0 -33.924,15.75079 -33.924,35.18037 z m 0,120.36073 c 0,19.42958 15.1883,35.18037 33.924,35.18037 18.7357,0 33.924,-15.75079 33.924,-35.18037 0,-19.42958 -15.1883,-35.18037 -33.924,-35.18037 -18.7357,0 -33.924,15.75079 -33.924,35.18037 z m 0,120.36073 c 0,19.42958 15.1883,35.18037 33.924,35.18037 18.7357,0 33.924,-15.75079 33.924,-35.18037 0,-19.42958 -15.1883,-35.18036 -33.924,-35.18036 -18.7357,0 -33.924,15.75078 -33.924,35.18036 z m 0,120.36074 c 0,19.42958 15.1883,35.18036 33.924,35.18036 18.7357,0 33.924,-15.75078 33.924,-35.18036 0,-19.42958 -15.1883,-35.18037 -33.924,-35.18037 -18.7357,0 -33.924,15.75079 -33.924,35.18037 z"
       transform="matrix(2,0,0,2,138.9224,119.11166)" />
    <g
       id="g11"
       transform="matrix(2,0,0,2,-48.567172,36.667485)">
      <rect
         style="fill:#3b337a;fill-opacity:1;stroke:#000000;stroke-width:8;stroke-linecap:round;stroke-dasharray:none;stroke-opacity:1"
         id="rect9"
         width="25.128834"
         height="90.463806"
         x="1784.8911"
         y="-385.78348"
         transform="rotate(32.254906)" />
      <rect
         style="fill:#3b337a;fill-opacity:1;stroke:#000000;stroke-width:8;stroke-linecap:round;stroke-dasharray:none;stroke-opacity:1"
         id="rect10"
         width="90.62072"
         height="23.0994"
         x="1620.5117"
         y="754.28424" />
      <path
         style="fill:#60b37e;fill-opacity:1;stroke:#000000;stroke-width:8;stroke-linecap:round;stroke-dasharray:none;stroke-opacity:1"
         d="m 1720.9053,669.88259 c 0,0 36.0493,20.5299 45.7545,37.75864 12.5595,22.29553 16.083,50.86058 11.1055,75.96149 -2.6476,13.35148 -20.8783,35.09331 -20.8783,35.09331 0,0 -46.0298,7.13052 -67.5214,0.44422 -11.9628,-3.72179 -23.2694,-11.52114 -30.8105,-21.52583 -4.2918,-5.69391 -6.948,-20.23078 -6.948,-20.23078 l 29.3184,0.88845 c 0,0 3.6125,12.92712 8.8844,15.99189 12.162,7.07023 29.1654,4.84512 42.2009,-0.44422 7.764,-3.15038 15.3198,-9.461 18.2129,-17.32455 6.3238,-17.18804 3.6849,-38.95677 -5.7748,-54.63897 -8.379,-13.89045 -40.424,-27.09737 -40.424,-27.09737 z"
         id="path10"
         sodipodi:nodetypes="caacaaccaaaacc" />
      <rect
         style="fill:#60b37e;fill-opacity:1;stroke:#000000;stroke-width:8;stroke-linecap:round;stroke-dasharray:none;stroke-opacity:1"
         id="rect11"
         width="15.077301"
         height="20.731289"
         x="1791.5526"
         y="-288.20444"
         transform="rotate(32.048549)" />
      <ellipse
         style="fill:#3b337a;fill-opacity:1;stroke:#000000;stroke-width:8;stroke-linecap:round;stroke-dasharray:none;stroke-opacity:1"
         id="path11"
         cx="1760.4473"
         cy="789.21631"
         rx="38.164417"
         ry="32.981594" />
    </g>
    <path
       style="fill:#60b37e;fill-opacity:1;stroke:#000000;stroke-width:16;stroke-linecap:round;stroke-dasharray:none;stroke-opacity:1"
       d="m 328.99226,1465.0893 c 0,0 8.4056,77.5925 0.52042,115.1615 -8.32376,39.6585 -49.38004,111.0873 -49.38004,111.0873 l 151.74624,0.5204 c 0,0 -41.44092,-69.6689 -50.11608,-108.5744 -8.42362,-37.7774 -0.736,-116.1131 -0.736,-116.1131 z"
       id="path12"
       sodipodi:nodetypes="caccacc" />
    <path
       style="fill:#60b37e;fill-opacity:1;stroke:#000000;stroke-width:16;stroke-linecap:round;stroke-dasharray:none;stroke-opacity:1"
       d="m 486.94994,1532.4405 c 0,0 5.99448,55.3353 0.37114,82.1277 -5.9361,28.2826 -35.21548,79.2221 -35.21548,79.2221 l 108.21818,0.3712 c 0,0 -29.55368,-49.6846 -35.7404,-77.4301 -6.00732,-26.941 -0.52488,-82.8063 -0.52488,-82.8063 z"
       id="path12-5"
       sodipodi:nodetypes="caccacc" />
  </g>
</svg>
