<?xml version="1.0" encoding="UTF-8" standalone="no"?>
<!-- Created with Inkscape (http://www.inkscape.org/) -->

<svg
   width="225.68408"
   height="259.73007"
   viewBox="0 0 225.68408 259.73007"
   version="1.1"
   id="svg1"
   inkscape:version="1.4 (86a8ad7, 2024-10-11)"
   xml:space="preserve"
   sodipodi:docname="seagrass.svg"
   xmlns:inkscape="http://www.inkscape.org/namespaces/inkscape"
   xmlns:sodipodi="http://sodipodi.sourceforge.net/DTD/sodipodi-0.dtd"
   xmlns="http://www.w3.org/2000/svg"
   xmlns:svg="http://www.w3.org/2000/svg"><sodipodi:namedview
     id="namedview1"
     pagecolor="#353535"
     bordercolor="#000000"
     borderopacity="0.25"
     inkscape:showpageshadow="2"
     inkscape:pageopacity="0.0"
     inkscape:pagecheckerboard="0"
     inkscape:deskcolor="#2b2b2b"
     inkscape:document-units="px"
     inkscape:zoom="3.1835937"
     inkscape:cx="140.09325"
     inkscape:cy="175.11657"
     inkscape:window-width="1920"
     inkscape:window-height="1017"
     inkscape:window-x="1912"
     inkscape:window-y="-8"
     inkscape:window-maximized="1"
     inkscape:current-layer="layer1" /><defs
     id="defs1" /><g
     inkscape:label="Layer 1"
     inkscape:groupmode="layer"
     id="layer1"
     transform="translate(-17.879341,4.9012738)"><path
       style="fill:#ffffff;stroke:none;stroke-width:8;stroke-linecap:square;stroke-miterlimit:9.8"
       d="m 160.36314,252.31652 c 0,0 -53.77616,5.10837 -80.130672,0.75642 -10.428755,-1.72211 -29.928944,-8.25648 -29.928944,-8.25648 l 25.657965,-45.36202 52.417871,4.44219 32.428,-6.21907 35.98176,5.77485 2.22109,27.98581 -10.66126,13.32658"
       id="path14"
       sodipodi:nodetypes="csccccccc" /><path
       style="fill:#ffffff;stroke:#2e222f;stroke-width:8;stroke-linecap:round;stroke-miterlimit:9.8"
       d="m 162.55921,208.88429 c 0,0 20.13625,-18.69809 23.12443,-26.31019 7.73811,-19.7121 2.45815,-42.43998 4.44219,-63.52335 1.60568,-17.06275 -8.24785,-51.091054 8.88438,-50.640989 17.14821,0.450485 5.74355,33.937679 6.21907,51.085209 0.62526,22.5471 0.76748,44.89323 -5.99696,66.41078 -4.9807,15.84352 -25.76471,42.64504 -25.76471,42.64504"
       id="path11"
       sodipodi:nodetypes="csssssc" /><path
       style="fill:#ffffff;stroke:#2e222f;stroke-width:8;stroke-linecap:round;stroke-miterlimit:9.8"
       d="m 87.511188,221.6654 c 0,0 -19.004864,-38.92913 -27.985811,-58.63694 -9.707428,-21.302 -5.761305,-71.765747 -27.985812,-64.411791 -25.9835567,8.597801 9.413142,54.198741 18.657208,79.959461 5.860007,16.33026 22.157069,42.87369 22.157069,42.87369"
       id="path2"
       sodipodi:nodetypes="csssc" /><path
       style="fill:#ffffff;stroke:#2e222f;stroke-width:8;stroke-linecap:square;stroke-miterlimit:9.8"
       d="m 77.960475,201.23131 c 0,0 -18.6804,-52.72845 -23.037973,-70.67117 C 49.078248,106.49587 40.082556,78.378777 38.540186,53.663081 37.577242,38.232387 30.054975,10.136129 45.335316,7.7814038 61.037788,5.3616275 63.259731,35.025478 66.188665,50.640992 c 1.99943,10.659893 -4.127985,21.681301 -2.665315,32.428004 2.255463,16.571608 13.89064,30.719164 17.32455,47.087234 5.482727,26.13395 4.886411,79.95947 4.886411,79.95947"
       id="path3"
       sodipodi:nodetypes="cssssssc" /><path
       style="fill:#ffffff;stroke:#2e222f;stroke-width:8;stroke-linecap:square;stroke-miterlimit:9.8"
       d="m 85.956421,216.77898 c 0,0 -5.141001,-35.20909 -5.108521,-52.86208 0.03167,-17.21343 8.085379,-33.88004 7.551727,-51.08522 C 87.845916,94.979805 78.211706,78.25069 77.294146,60.413815 76.575046,46.434889 67.796182,19.921927 81.736338,18.657208 100.49429,16.955395 94.560347,54.285282 97.72823,72.851954 c 3.41638,20.023111 4.92985,40.627286 3.10954,60.858036 -1.335756,14.84548 -6.952836,28.31514 -6.761832,43.21937 0.164763,12.8566 3.794921,25.55569 3.794921,25.55569"
       id="path4"
       sodipodi:nodetypes="csssssssc" /><path
       style="fill:#ffffff;stroke:#2e222f;stroke-width:8;stroke-linecap:round;stroke-miterlimit:9.8"
       d="m 95.507135,214.55789 10.661265,-43.08927 -3.99798,-33.31644 c 0,0 10.9751,-44.439588 10.66126,-67.077103 -0.20049,-14.46134 -9.07946,-28.222961 -7.99594,-42.645046 0.77534,-10.320154 -0.10952,-30.0032971 10.21704,-29.31846946 26.39742,1.75060129 15.26936,51.29283346 15.99189,77.73836546 1.25938,46.095143 -20.43408,136.819523 -20.43408,136.819523"
       id="path5"
       sodipodi:nodetypes="cccssssc" /><path
       style="fill:#ffffff;stroke:#2e222f;stroke-width:8;stroke-linecap:round;stroke-miterlimit:9.8"
       d="m 110.49953,214.22472 c 0,0 1.25721,-27.43868 1.88793,-41.42344 0.95794,-21.24018 -21.764526,-57.64104 -1.33266,-63.52335 10.05462,-2.89471 11.7789,17.81035 14.21502,27.98581 2.41333,10.08025 -1.68887,24.31494 -0.88844,34.6491 0.8911,11.5048 6.21907,30.65113 6.21907,30.65113 l -7.99595,16.88033"
       id="path6"
       sodipodi:nodetypes="csssscc" /><path
       style="fill:#ffffff;stroke:#2e222f;stroke-width:8;stroke-linecap:square;stroke-miterlimit:9.8"
       d="m 129.37558,193.59953 c 0,0 2.05511,-43.97012 6.99972,-62.55486 2.99896,-11.27186 6.34881,-19.4356 6.66329,-31.095343 0.34224,-12.689144 -6.24596,-25.517841 -5.77485,-38.202854 0.39496,-10.634374 0.92814,-30.417131 11.5497,-29.762688 16.91889,1.04245 11.98496,32.363421 12.43814,49.308334 0.41147,15.385553 -9.48851,29.931171 -8.88438,45.310361 0.25947,6.60534 5.33063,19.10143 5.33063,19.10143"
       id="path7"
       sodipodi:nodetypes="cssssssc" /><path
       style="fill:#ffffff;stroke:#2e222f;stroke-width:8;stroke-linecap:round;stroke-miterlimit:9.8"
       d="m 159.4747,185.23942 c 0,0 8.5032,-16.68822 8.88439,-25.76472 0.48071,-11.44621 -8.49293,-21.86026 -8.44017,-33.31644 0.067,-14.54572 -3.43903,-42.001505 11.10548,-42.200826 12.65018,-0.173361 8.96727,23.888536 10.66126,36.425976 2.45883,18.19809 -0.1651,36.4486 -4.8864,54.19475 -4.65172,17.4846 -22.21097,48.41989 -22.21097,48.41989"
       id="path10"
       sodipodi:nodetypes="csssssc" /><path
       style="fill:#ffffff;stroke:#2e222f;stroke-width:8;stroke-linecap:square;stroke-miterlimit:9.8"
       d="m 189.68161,206.56194 c 0,0 12.99778,-13.44629 16.88033,-21.76674 5.31773,-11.39611 -4.55151,-37.71329 7.99595,-36.8702 13.04219,0.87633 5.92823,26.32723 3.10953,39.0913 -3.11688,14.11433 -21.32252,37.75863 -21.32252,37.75863"
       id="path12"
       sodipodi:nodetypes="csssc" /><path
       style="fill:#ffffff;stroke:#2e222f;stroke-width:8;stroke-linecap:round;stroke-miterlimit:9.8"
       d="m 187.0163,231.88244 c 0,0 18.30437,-12.67292 26.20893,-20.43409 8.56412,-8.40876 12.50622,-34.39285 22.65518,-27.98581 12.48902,7.88432 -9.72545,28.56793 -19.10143,39.97973 -7.38841,8.99266 -29.09636,19.10143 -29.09636,19.10143"
       id="path13"
       sodipodi:nodetypes="csssc" /><path
       style="fill:#ffffff;stroke:#2e222f;stroke-width:8;stroke-linecap:round;stroke-miterlimit:9.8"
       d="m 50.196773,242.09948 c 0,0 -14.402997,-21.49709 -17.768769,-33.76066 -4.591245,-16.72871 -19.599951,-48.21233 -2.665316,-51.97365 14.97825,-3.32679 8.505588,30.08951 17.32455,42.64504 7.894989,11.24008 30.651127,27.5416 30.651127,27.5416"
       id="path1"
       sodipodi:nodetypes="csssc" /><path
       style="fill:#ffffff;stroke:#2e222f;stroke-width:8;stroke-linecap:round;stroke-miterlimit:9.8"
       d="m 123.82611,216.55687 c 0,0 11.42039,-23.43741 15.43662,-37.53652 4.88226,-17.13932 -7.3414,-53.88121 10.43915,-55.08318 8.92916,-0.60362 9.84625,16.40813 10.66126,25.32049 1.31495,14.37922 0.17243,37.95395 -5.10852,51.39279 -4.13752,10.52905 -21.21148,22.56971 -21.21148,22.56971"
       id="path8"
       sodipodi:nodetypes="cssssc" /></g></svg>
