<?xml version="1.0" encoding="UTF-8" standalone="no"?>
<!-- Created with Inkscape (http://www.inkscape.org/) -->

<svg
   width="119.56686"
   height="200.02901"
   viewBox="0 0 119.56686 200.029"
   version="1.1"
   id="svg1"
   inkscape:version="1.4 (86a8ad7, 2024-10-11)"
   xml:space="preserve"
   sodipodi:docname="shriveled_mushroom_silhouette.svg"
   xmlns:inkscape="http://www.inkscape.org/namespaces/inkscape"
   xmlns:sodipodi="http://sodipodi.sourceforge.net/DTD/sodipodi-0.dtd"
   xmlns="http://www.w3.org/2000/svg"
   xmlns:svg="http://www.w3.org/2000/svg"><sodipodi:namedview
     id="namedview1"
     pagecolor="#ffffff"
     bordercolor="#000000"
     borderopacity="0.25"
     inkscape:showpageshadow="2"
     inkscape:pageopacity="0.0"
     inkscape:pagecheckerboard="0"
     inkscape:deskcolor="#2b2b2b"
     inkscape:document-units="px"
     inkscape:zoom="1.5917969"
     inkscape:cx="62.822085"
     inkscape:cy="68.161962"
     inkscape:window-width="1920"
     inkscape:window-height="1017"
     inkscape:window-x="1912"
     inkscape:window-y="-8"
     inkscape:window-maximized="1"
     inkscape:current-layer="layer1" /><defs
     id="defs1" /><g
     inkscape:label="Layer 1"
     inkscape:groupmode="layer"
     id="layer1"
     transform="translate(-65.28151,-48.982928)"><path
       style="display:inline;fill:#2e222f;stroke:#2e222f;stroke-width:8;stroke-linecap:round;stroke-miterlimit:9.8"
       d="m 95.897461,245.01194 c 0,0 8.111259,-21.87527 9.274739,-33.35741 1.45842,-14.39275 -3.00178,-43.29544 -3.00178,-43.29544 l 39.97973,-1.33266 c 0,0 1.30905,28.58532 5.30974,42.17974 3.57447,12.1461 16.42544,34.24829 16.42544,34.24829"
       id="path4"
       sodipodi:nodetypes="caccac" /><path
       style="display:inline;fill:#2e222f;stroke:#2e222f;stroke-width:8;stroke-linecap:square;stroke-miterlimit:9.8"
       d="m 100.41586,192.06617 c 0,0 -24.008381,-4.957 -28.430042,-14.65923 -5.436082,-11.92813 10.184441,-25.12239 9.328601,-38.20286 -0.69479,-10.619 -14.853312,-19.64676 -11.549697,-29.76269 4.093204,-12.533718 24.059247,-11.933548 33.316448,-21.322518 9.66445,-9.80203 8.02993,-34.2093 21.76674,-35.09332 20.58585,-1.32478 32.37255,28.47206 39.09128,47.975678 4.77553,13.86272 -4.86037,29.86372 -0.88843,43.9777 2.90421,10.31987 19.61886,20.01631 17.63866,30.55258 -2.50549,13.33126 -63.34094,14.56453 -63.34094,14.56453"
       id="path1"
       sodipodi:nodetypes="cssssssssc" /><path
       style="fill:#2e222f;stroke:#2e222f;stroke-width:8;stroke-linecap:round;stroke-miterlimit:9.8"
       d="m 116.85196,100.11279 c 0,0 -12.57801,10.31282 -13.32657,17.76877 -0.90279,8.9921 11.36469,18.508 11.10548,27.54159 -0.36043,12.56099 -17.852561,18.53436 -18.212991,31.09535 -0.25921,9.03359 0.65968,22.09715 9.525671,23.84848 7.83092,1.54687 19.0029,-24.18109 19.0029,-24.18109"
       id="path2"
       sodipodi:nodetypes="cssssc" /><path
       style="fill:#2e222f;stroke:#2e222f;stroke-width:8;stroke-linecap:round;stroke-miterlimit:9.8"
       d="m 141.28402,89.895752 c 0,0 11.69044,21.921708 12.43813,30.651118 0.71584,8.35745 -9.75714,15.2011 -8.88437,23.54362 0.9146,8.74239 11.96913,13.71261 14.21501,22.21096 2.87926,10.8951 8.36167,28.84098 -1.77688,33.76067 -5.54415,2.69028 -18.87279,-17.5717 -18.87279,-17.5717"
       id="path3"
       sodipodi:nodetypes="cssssc" /></g></svg>
