<?xml version="1.0" encoding="UTF-8" standalone="no"?>
<!-- Created with Inkscape (http://www.inkscape.org/) -->

<svg
   width="119.56686"
   height="155.47047"
   viewBox="0 0 119.56686 155.47047"
   version="1.1"
   id="svg1"
   inkscape:version="1.4 (86a8ad7, 2024-10-11)"
   xml:space="preserve"
   sodipodi:docname="shriveled_mushroom_top.svg"
   xmlns:inkscape="http://www.inkscape.org/namespaces/inkscape"
   xmlns:sodipodi="http://sodipodi.sourceforge.net/DTD/sodipodi-0.dtd"
   xmlns="http://www.w3.org/2000/svg"
   xmlns:svg="http://www.w3.org/2000/svg"><sodipodi:namedview
     id="namedview1"
     pagecolor="#ffffff"
     bordercolor="#000000"
     borderopacity="0.25"
     inkscape:showpageshadow="2"
     inkscape:pageopacity="0.0"
     inkscape:pagecheckerboard="0"
     inkscape:deskcolor="#2b2b2b"
     inkscape:document-units="px"
     inkscape:zoom="1.5917969"
     inkscape:cx="128.15706"
     inkscape:cy="117.79141"
     inkscape:window-width="1920"
     inkscape:window-height="1017"
     inkscape:window-x="1912"
     inkscape:window-y="-8"
     inkscape:window-maximized="1"
     inkscape:current-layer="layer1" /><defs
     id="defs1" /><g
     inkscape:label="Layer 1"
     inkscape:groupmode="layer"
     id="layer1"
     transform="translate(-65.703426,-41.267737)"><path
       style="display:inline;fill:#ffffff;stroke:#2e222f;stroke-width:8;stroke-linecap:square;stroke-miterlimit:9.8"
       d="m 100.83777,184.35098 c 0,0 -24.008375,-4.957 -28.430036,-14.65923 -5.436082,-11.92813 10.184445,-25.12239 9.328604,-38.20286 -0.69479,-10.619 -14.853315,-19.64676 -11.5497,-29.76269 4.093204,-12.533716 24.059251,-11.933548 33.316442,-21.322519 9.66445,-9.802028 8.02993,-34.209302 21.76674,-35.09332 20.58586,-1.324783 32.37255,28.472057 39.09129,47.975677 4.77553,13.862722 -4.86038,29.863722 -0.88843,43.977702 2.90421,10.31987 19.61885,20.01631 17.63866,30.55258 -2.50549,13.33126 -63.34094,14.56453 -63.34094,14.56453"
       id="path1"
       sodipodi:nodetypes="cssssssssc" /><path
       style="fill:#ffffff;stroke:#2e222f;stroke-width:8;stroke-linecap:round;stroke-miterlimit:9.8"
       d="m 117.27388,92.397599 c 0,0 -12.57802,10.312821 -13.32658,17.768771 -0.90279,8.9921 11.36469,18.508 11.10548,27.54159 -0.36043,12.56099 -17.852556,18.53436 -18.212986,31.09535 -0.25921,9.03359 0.659682,22.09715 9.525676,23.84848 7.83091,1.54687 19.0029,-24.18109 19.0029,-24.18109"
       id="path2"
       sodipodi:nodetypes="cssssc" /><path
       style="fill:#ffffff;stroke:#2e222f;stroke-width:8;stroke-linecap:round;stroke-miterlimit:9.8"
       d="m 141.70594,82.180558 c 0,0 11.69044,21.921712 12.43813,30.651122 0.71583,8.35745 -9.75715,15.2011 -8.88438,23.54362 0.91461,8.74239 11.96914,13.71261 14.21501,22.21096 2.87927,10.8951 8.36167,28.84098 -1.77687,33.76067 -5.54415,2.69028 -18.87279,-17.5717 -18.87279,-17.5717"
       id="path3"
       sodipodi:nodetypes="cssssc" /></g></svg>
