<?xml version="1.0" encoding="UTF-8" standalone="no"?>
<!-- Created with Inkscape (http://www.inkscape.org/) -->

<svg
   width="144.49791"
   height="182.08429"
   viewBox="0 0 144.49791 182.08429"
   version="1.1"
   id="svg1"
   inkscape:version="1.4 (86a8ad7, 2024-10-11)"
   sodipodi:docname="corrupted_hint.svg"
   xmlns:inkscape="http://www.inkscape.org/namespaces/inkscape"
   xmlns:sodipodi="http://sodipodi.sourceforge.net/DTD/sodipodi-0.dtd"
   xmlns="http://www.w3.org/2000/svg"
   xmlns:svg="http://www.w3.org/2000/svg">
  <sodipodi:namedview
     id="namedview1"
     pagecolor="#ffffff"
     bordercolor="#000000"
     borderopacity="0.25"
     inkscape:showpageshadow="2"
     inkscape:pageopacity="0.0"
     inkscape:pagecheckerboard="0"
     inkscape:deskcolor="#2b2b2b"
     inkscape:document-units="px"
     inkscape:zoom="2.2511407"
     inkscape:cx="91.953382"
     inkscape:cy="102.83675"
     inkscape:window-width="1920"
     inkscape:window-height="1017"
     inkscape:window-x="1912"
     inkscape:window-y="-8"
     inkscape:window-maximized="1"
     inkscape:current-layer="layer1" />
  <defs
     id="defs1" />
  <g
     inkscape:label="Layer 1"
     inkscape:groupmode="layer"
     id="layer1"
     transform="translate(-41.728043,-54.378382)">
    <path
       style="fill:#ffffff;stroke:#2e222f;stroke-width:8;stroke-linecap:round"
       d="m 49.218385,59.615599 c 0,0 34.578642,50.948191 37.243614,80.347541 1.326891,14.63795 -13.13692,28.13872 -11.047756,42.68746 2.824002,19.66607 30.567247,51.16842 30.567247,51.16842 0,0 -10.982932,-34.37181 -9.930668,-51.98066 0.85638,-14.33087 12.316938,-26.7036 13.062528,-41.04067 1.44401,-27.76706 -16.917315,-81.680203 -16.917315,-81.680203 z"
       id="path1"
       sodipodi:nodetypes="caacaacc" />
    <path
       style="fill:#ffffff;stroke:#2e222f;stroke-width:8;stroke-linecap:round"
       d="m 109.64494,59.18665 c 0,0 31.45548,49.8313 34.73074,78.14877 1.74988,15.12929 -11.19102,29.88948 -8.53488,44.88623 3.46495,19.56332 30.56725,51.16842 30.56725,51.16842 0,0 -10.42167,-34.34724 -9.93067,-51.98066 0.41647,-14.95687 8.18822,-28.83204 10.86376,-43.55355 2.06289,-11.35058 -14.37908,-32.5255 -11.30164,-49.004081 2.23019,-11.941915 20.45548,-30.163241 20.45548,-30.163241 z"
       id="path1-5"
       sodipodi:nodetypes="caacasacc" />
    <path
       style="fill:#ffffff;stroke:#2e222f;stroke-width:8;stroke-linecap:round"
       d="m 94.137415,58.94525 c 0,0 -3.449944,40.604685 0.373419,60.35767 4.299009,22.21037 27.126466,40.60546 24.933996,63.12156 -1.75924,18.06699 -29.402344,45.83779 -29.402344,45.83779 0,0 44.850724,-24.78547 50.927364,-47.09425 5.74645,-21.09658 -18.41568,-40.94806 -18.92125,-62.80742 -0.47616,-20.587432 15.06646,-59.913462 15.06646,-59.913462 z"
       id="path1-8"
       sodipodi:nodetypes="caacaacc" />
  </g>
</svg>
