<?xml version="1.0" encoding="UTF-8" standalone="no"?>
<!-- Created with Inkscape (http://www.inkscape.org/) -->

<svg
   width="164.25717"
   height="197.31302"
   viewBox="0 0 164.25717 197.31302"
   version="1.1"
   id="svg1"
   inkscape:version="1.4 (86a8ad7, 2024-10-11)"
   xml:space="preserve"
   sodipodi:docname="tall_mushroom_silhouette.svg"
   xmlns:inkscape="http://www.inkscape.org/namespaces/inkscape"
   xmlns:sodipodi="http://sodipodi.sourceforge.net/DTD/sodipodi-0.dtd"
   xmlns="http://www.w3.org/2000/svg"
   xmlns:svg="http://www.w3.org/2000/svg"><sodipodi:namedview
     id="namedview1"
     pagecolor="#ffffff"
     bordercolor="#000000"
     borderopacity="0.25"
     inkscape:showpageshadow="2"
     inkscape:pageopacity="0.0"
     inkscape:pagecheckerboard="0"
     inkscape:deskcolor="#2b2b2b"
     inkscape:document-units="px"
     inkscape:zoom="2.2511407"
     inkscape:cx="35.537539"
     inkscape:cy="44.199814"
     inkscape:window-width="1920"
     inkscape:window-height="1017"
     inkscape:window-x="1912"
     inkscape:window-y="-8"
     inkscape:window-maximized="1"
     inkscape:current-layer="layer1" /><defs
     id="defs1" /><g
     inkscape:label="Layer 1"
     inkscape:groupmode="layer"
     id="layer1"
     transform="translate(-60.398643,-46.048632)"><path
       style="fill:#2e222f;stroke:#2e222f;stroke-width:8;stroke-linecap:round;stroke-miterlimit:9.8"
       d="m 80.489936,225.54079 1.884662,-72.2454 7.852761,1.25645 0.942331,73.81595"
       id="path8" /><path
       style="fill:#2e222f;stroke:#2e222f;stroke-width:8;stroke-linecap:round;stroke-miterlimit:9.8"
       d="m 98.394231,235.90643 4.083439,-39.57791 8.16687,1.25644 v 38.63559"
       id="path9"
       sodipodi:nodetypes="cccc" /><path
       style="fill:#2e222f;stroke:#2e222f;stroke-width:8;stroke-linecap:round;stroke-miterlimit:9.8"
       d="m 140.17091,221.14325 8.48098,-58.42454 8.48098,-1.25645 -5.33987,60.93743"
       id="path10" /><path
       style="fill:#2e222f;stroke:#2e222f;stroke-width:8;stroke-linecap:round;stroke-miterlimit:9.8"
       d="m 168.44085,239.36165 3.76932,-44.91779 8.48098,0.94233 1.57056,43.97546"
       id="path11"
       sodipodi:nodetypes="cccc" /><path
       style="fill:#2e222f;stroke:#2e222f;stroke-width:8;stroke-linecap:round;stroke-miterlimit:9.8"
       d="m 201.73655,234.33588 c 1.25645,-1.25644 -5.33988,-117.16319 -5.33988,-117.16319 h -8.79508 l 3.45521,115.59264"
       id="path12"
       sodipodi:nodetypes="cccc" /><path
       style="fill:#2e222f;stroke:#2e222f;stroke-width:8;stroke-linecap:round;stroke-miterlimit:9.8"
       d="m 121.98409,234.28199 c 0.31411,-3.1411 -0.97391,-150.404997 -0.97391,-150.404997 l 10.76522,-1.884663 4.9403,153.28589"
       id="path13"
       sodipodi:nodetypes="cccc" /><path
       style="fill:#2e222f;stroke:#2e222f;stroke-width:8;stroke-linecap:round;stroke-miterlimit:9.8"
       d="m 165.6622,126.24373 c 0,0 3.82445,-22.85888 12.93626,-28.874256 5.68974,-3.756216 21.7709,-4.380408 26.9765,0.02232 8.67019,7.332966 13.94173,27.694026 13.94173,27.694026 z"
       id="path1"
       sodipodi:nodetypes="csscc" /><path
       style="fill:#2e222f;stroke:#2e222f;stroke-width:8;stroke-linecap:round;stroke-miterlimit:9.8"
       d="m 81.292119,87.066969 c 0,0 14.595499,-26.990896 27.541591,-33.316442 9.18371,-4.487221 21.25608,-4.914445 30.65113,-0.888439 14.45641,6.194923 31.53956,35.093319 31.53956,35.093319 z"
       id="path2"
       sodipodi:nodetypes="csscc" /><path
       style="fill:#2e222f;stroke:#2e222f;stroke-width:8;stroke-linecap:round;stroke-miterlimit:9.8"
       d="m 66.103203,160.30925 c 0,0 7.866845,-18.56277 15.188916,-23.93395 3.124838,-2.29226 8.34402,-3.51043 11.5497,-1.33266 8.497341,5.77264 10.508831,30.70502 10.508831,30.70502 z"
       id="path3"
       sodipodi:nodetypes="csscc" /><path
       style="fill:#2e222f;stroke:#2e222f;stroke-width:8;stroke-linecap:round;stroke-miterlimit:9.8"
       d="m 128.94444,162.97457 c 0,0 5.95939,-18.84818 12.76149,-24.37817 5.06709,-4.11946 14.41706,-5.3753 19.54565,-1.33266 7.66625,6.04297 9.59807,28.56014 9.59807,28.56014 z"
       id="path5"
       sodipodi:nodetypes="csscc" /><path
       style="fill:#2e222f;stroke:#2e222f;stroke-width:8;stroke-linecap:round;stroke-miterlimit:9.8"
       d="m 152.90996,199.45443 c 0,0 5.14973,-14.99618 10.56272,-19.10142 5.6827,-4.30979 15.2683,-5.54701 21.32252,-1.77688 6.88568,4.28791 12.65371,22.96929 12.65371,22.96929 z"
       id="path6"
       sodipodi:nodetypes="csscc" /><path
       style="fill:#2e222f;stroke:#2e222f;stroke-width:8;stroke-linecap:round;stroke-miterlimit:9.8"
       d="m 81.736338,200.34287 c 0,0 5.626201,-14.70686 11.993919,-18.21299 7.135253,-3.92875 17.781173,-5.14664 24.432053,-0.44422 6.88204,4.86586 10.50883,23.98784 10.50883,23.98784 z"
       id="path7"
       sodipodi:nodetypes="csscc" /></g></svg>
