<?xml version="1.0" encoding="UTF-8" standalone="no"?>
<!-- Created with Inkscape (http://www.inkscape.org/) -->

<svg
   width="238.95718"
   height="150.79219"
   viewBox="0 0 238.95718 150.79219"
   version="1.1"
   id="svg1"
   inkscape:version="1.4 (86a8ad7, 2024-10-11)"
   xml:space="preserve"
   sodipodi:docname="hermit_shell.svg"
   xmlns:inkscape="http://www.inkscape.org/namespaces/inkscape"
   xmlns:sodipodi="http://sodipodi.sourceforge.net/DTD/sodipodi-0.dtd"
   xmlns="http://www.w3.org/2000/svg"
   xmlns:svg="http://www.w3.org/2000/svg"><sodipodi:namedview
     id="namedview1"
     pagecolor="#353535"
     bordercolor="#000000"
     borderopacity="0.25"
     inkscape:showpageshadow="2"
     inkscape:pageopacity="0.0"
     inkscape:pagecheckerboard="0"
     inkscape:deskcolor="#2b2b2b"
     inkscape:document-units="px"
     inkscape:zoom="1.5917969"
     inkscape:cx="150.14479"
     inkscape:cy="5.3398774"
     inkscape:window-width="1920"
     inkscape:window-height="1017"
     inkscape:window-x="1912"
     inkscape:window-y="-8"
     inkscape:window-maximized="1"
     inkscape:current-layer="layer2"
     showgrid="false" /><defs
     id="defs1" /><g
     inkscape:label="Layer 1"
     inkscape:groupmode="layer"
     id="layer1"
     transform="translate(-164.93686,-124.54707)"
     style="display:none"><path
       style="fill:#ffffff;stroke:#2e222f;stroke-width:8;stroke-linecap:round;stroke-miterlimit:9.8"
       d="m 389.15787,204.29628 c 0,0 9.56502,-16.42224 14.89872,-24.27738 6.76537,-9.96362 10.46793,-33.39378 21.6513,-28.92432 9.32189,3.72551 1.59521,21.28194 -3.54068,29.90747 -6.88978,11.57111 -33.00934,23.29423 -33.00934,23.29423 z"
       id="path15"
       sodipodi:nodetypes="caaac" /><path
       style="fill:#ffffff;stroke:#2e222f;stroke-width:8;stroke-linecap:round;stroke-miterlimit:9.8"
       d="m 369.03537,237.3625 40.20614,4.39754 30.78282,28.89816 -57.1681,-20.10306 -29.52638,-11.9362 z"
       id="path18"
       sodipodi:nodetypes="cccccc" /><path
       style="fill:#ffffff;stroke:#2e222f;stroke-width:8;stroke-linecap:round;stroke-miterlimit:9.8"
       d="m 381.61922,225.02757 43.84918,-3.03332 25.39831,35.5168 -42.18935,-21.69594 -40.25078,-1.99245 z"
       id="path16"
       sodipodi:nodetypes="cccccc" /><path
       style="fill:#ffffff;stroke:#2e222f;stroke-width:8;stroke-linecap:round;stroke-miterlimit:9.8"
       d="m 374.39468,231.30978 33.60982,13.19263 12.25031,33.92393 -31.41105,-25.12883 -27.95583,-12.25031 z"
       id="path17" /><circle
       style="fill:#ffffff;stroke:#2e222f;stroke-width:8;stroke-linecap:round;stroke-miterlimit:9.8"
       id="path25"
       cx="368.37177"
       cy="211.0088"
       r="35.18037" /><path
       style="fill:#ffffff;stroke:#2e222f;stroke-width:8;stroke-linecap:round;stroke-miterlimit:9.8"
       d="m 378.63714,218.77371 c 0,0 20.7278,-17.66513 31.81062,-25.5469 8.34023,-5.93132 18.76864,-23.52695 26.01728,-16.30218 8.14944,8.1226 -9.14536,22.25162 -18.23149,29.31081 -10.9329,8.49398 -39.59641,12.53827 -39.59641,12.53827 z"
       id="path15-8"
       sodipodi:nodetypes="caaac" /></g><g
     inkscape:groupmode="layer"
     id="layer2"
     inkscape:label="Layer 2"
     transform="translate(3.6960458,7.2743196)"><path
       style="fill:#ffffff;stroke:#2e222f;stroke-width:8;stroke-linecap:round;stroke-miterlimit:9.8"
       d="m 399.20941,184.19321 c 0,0 -33.28774,-47.03805 -59.05277,-53.39877 -56.45903,-13.93827 -168.99141,43.34723 -168.99141,43.34723 0,0 71.65696,88.08805 123.13129,96.74601 25.15244,4.23064 72.32162,-24.98947 72.32162,-24.98947 z"
       id="path9"
       sodipodi:nodetypes="cacacc"
       transform="translate(-168.63291,-131.82139)" /><path
       style="fill:#ffffff;stroke:#2e222f;stroke-width:8;stroke-linecap:round;stroke-miterlimit:9.8"
       d="m 244.01941,142.50114 c -0.62822,1.04704 -1.25644,2.09407 0,0 z"
       id="path20"
       transform="translate(-168.63291,-131.82139)" /><path
       style="fill:#ffffff;stroke:#2e222f;stroke-width:8;stroke-linecap:round;stroke-miterlimit:9.8"
       d="M 245.90408,142.50114 204.4415,212.23366"
       id="path21"
       transform="translate(-168.63291,-131.82139)" /><path
       style="fill:#ffffff;stroke:#2e222f;stroke-width:8;stroke-linecap:round;stroke-miterlimit:9.8"
       d="m 300.55929,130.56495 c -3.1411,7.53865 -66.59141,104.28466 -66.59141,104.28466"
       id="path22"
       transform="translate(-168.63291,-131.82139)" /><path
       style="fill:#ffffff;stroke:#2e222f;stroke-width:8;stroke-linecap:round;stroke-miterlimit:9.8"
       d="M 354.58629,138.1036 271.03291,258.09378"
       id="path23"
       transform="translate(-168.63291,-131.82139)" /><path
       style="fill:#ffffff;stroke:#2e222f;stroke-width:8;stroke-linecap:round;stroke-miterlimit:9.8"
       d="M 379.0869,160.09133 309.98261,268.77354"
       id="path24"
       transform="translate(-168.63291,-131.82139)" /></g><g
     inkscape:groupmode="layer"
     id="layer3"
     inkscape:label="Layer 3"
     transform="translate(3.6960458,7.2743196)"
     style="display:none"><circle
       style="fill:#ffffff;stroke:#2e222f;stroke-width:8;stroke-linecap:round;stroke-miterlimit:9.8"
       id="path19"
       cx="424.94739"
       cy="158.91875"
       r="13.326577"
       transform="translate(-168.63291,-131.82139)" /><circle
       style="fill:#ffffff;stroke:#2e222f;stroke-width:8;stroke-linecap:round;stroke-miterlimit:9.8"
       id="path19-5"
       cx="434.30838"
       cy="175.91673"
       r="13.326577"
       transform="translate(-168.63291,-131.82139)" /></g></svg>
