<?xml version="1.0" encoding="UTF-8" standalone="no"?>
<!-- Created with Inkscape (http://www.inkscape.org/) -->

<svg
   width="584.70673"
   height="620.91888"
   viewBox="0 0 584.70673 620.91888"
   version="1.1"
   id="svg1"
   inkscape:version="1.4 (86a8ad7, 2024-10-11)"
   sodipodi:docname="lab_gems.svg"
   xmlns:inkscape="http://www.inkscape.org/namespaces/inkscape"
   xmlns:sodipodi="http://sodipodi.sourceforge.net/DTD/sodipodi-0.dtd"
   xmlns="http://www.w3.org/2000/svg"
   xmlns:svg="http://www.w3.org/2000/svg">
  <sodipodi:namedview
     id="namedview1"
     pagecolor="#ffffff"
     bordercolor="#000000"
     borderopacity="0.25"
     inkscape:showpageshadow="2"
     inkscape:pageopacity="0.0"
     inkscape:pagecheckerboard="0"
     inkscape:deskcolor="#2b2b2b"
     inkscape:document-units="px"
     inkscape:zoom="0.79589844"
     inkscape:cx="184.06871"
     inkscape:cy="194.12024"
     inkscape:window-width="1920"
     inkscape:window-height="1017"
     inkscape:window-x="-8"
     inkscape:window-y="-8"
     inkscape:window-maximized="1"
     inkscape:current-layer="layer1" />
  <defs
     id="defs1">
    <inkscape:path-effect
       effect="mirror_symmetry"
       start_point="360,36.333895"
       end_point="360,657.25278"
       center_point="360,346.79334"
       id="path-effect20"
       is_visible="true"
       lpeversion="1.2"
       lpesatellites=""
       mode="vertical"
       discard_orig_path="false"
       fuse_paths="false"
       oposite_fuse="false"
       split_items="false"
       split_open="false"
       link_styles="false" />
    <inkscape:path-effect
       effect="mirror_symmetry"
       start_point="360,36.333895"
       end_point="360,657.25278"
       center_point="360,346.79334"
       id="path-effect16"
       is_visible="true"
       lpeversion="1.2"
       lpesatellites=""
       mode="vertical"
       discard_orig_path="false"
       fuse_paths="false"
       oposite_fuse="false"
       split_items="false"
       split_open="false"
       link_styles="false" />
    <inkscape:path-effect
       effect="copy_rotate"
       starting_point="385.765,360"
       origin="360,360"
       id="path-effect14"
       is_visible="true"
       lpeversion="1.2"
       lpesatellites=""
       method="normal"
       num_copies="10"
       starting_angle="0"
       rotation_angle="36"
       gap="-0.01"
       copies_to_360="true"
       mirror_copies="false"
       split_items="false"
       link_styles="false" />
    <inkscape:path-effect
       effect="copy_rotate"
       starting_point="361,360"
       origin="360,360"
       id="path-effect6"
       is_visible="true"
       lpeversion="1.2"
       lpesatellites=""
       method="normal"
       num_copies="20"
       starting_angle="0"
       rotation_angle="18"
       gap="-0.01"
       copies_to_360="true"
       mirror_copies="false"
       split_items="false"
       link_styles="false" />
    <inkscape:path-effect
       effect="copy_rotate"
       starting_point="372.307,360"
       origin="360,360"
       id="path-effect5"
       is_visible="true"
       lpeversion="1.2"
       lpesatellites=""
       method="normal"
       num_copies="10"
       starting_angle="0"
       rotation_angle="36"
       gap="-0.01"
       copies_to_360="true"
       mirror_copies="false"
       split_items="false"
       link_styles="false" />
    <inkscape:path-effect
       effect="copy_rotate"
       starting_point="385.765,360"
       origin="360,360"
       id="path-effect4"
       is_visible="true"
       lpeversion="1.2"
       lpesatellites=""
       method="normal"
       num_copies="10"
       starting_angle="0"
       rotation_angle="36"
       gap="-0.01"
       copies_to_360="true"
       mirror_copies="false"
       split_items="false"
       link_styles="false" />
  </defs>
  <g
     inkscape:label="Layer 1"
     inkscape:groupmode="layer"
     id="layer1"
     transform="translate(-67.646637,-36.333895)">
    <path
       style="display:inline;fill:#ffffff;fill-opacity:1;stroke:#2e222f;stroke-width:7.35761;stroke-linecap:round;stroke-dasharray:none"
       id="path4"
       inkscape:path-effect="#path-effect14"
       sodipodi:type="arc"
       sodipodi:cx="360"
       sodipodi:cy="173.90675"
       sodipodi:rx="25.7183"
       sodipodi:ry="25.7183"
       d="m 385.7183,173.90675 c 0,14.20383 -11.51448,25.7183 -25.7183,25.7183 -14.20382,0 -25.7183,-11.51447 -25.7183,-25.7183 0,-14.20382 11.51448,-25.7183 25.7183,-25.7183 14.20382,0 25.7183,11.51448 25.7183,25.7183 z m -114.29462,20.42381 c 8.34879,11.49114 5.80143,27.57458 -5.68971,35.92338 -11.49113,8.3488 -27.57458,5.80143 -35.92338,-5.6897 -8.3488,-11.49114 -5.80143,-27.57458 5.68971,-35.92338 11.49113,-8.3488 27.57458,-5.80143 35.92338,5.6897 z m -80.46148,83.70391 c 13.50864,4.38922 20.90139,18.89831 16.51216,32.40695 -4.38922,13.50864 -18.89831,20.90138 -32.40695,16.51216 -13.50864,-4.38922 -20.90138,-18.89831 -16.51216,-32.40695 4.38922,-13.50864 18.89831,-20.90139 32.40695,-16.51216 z m -15.89479,115.01195 c 13.50864,-4.38922 28.01773,3.00352 32.40695,16.51216 4.38923,13.50864 -3.00352,28.01773 -16.51216,32.40695 -13.50864,4.38923 -28.01773,-3.00352 -32.40695,-16.51216 -4.38922,-13.50864 3.00352,-28.01773 16.51216,-32.40695 z m 54.74318,102.38934 c 8.3488,-11.49113 24.43225,-14.0385 35.92338,-5.6897 11.49114,8.3488 14.0385,24.43224 5.68971,35.92338 -8.3488,11.49113 -24.43225,14.0385 -35.92338,5.6897 -11.49114,-8.3488 -14.03851,-24.43224 -5.68971,-35.92338 z m 104.47111,50.65749 c 0,-14.20383 11.51448,-25.7183 25.7183,-25.7183 14.20382,0 25.7183,11.51447 25.7183,25.7183 0,14.20382 -11.51448,25.7183 -25.7183,25.7183 -14.20382,0 -25.7183,-11.51448 -25.7183,-25.7183 z m 114.29462,-20.42381 c -8.34879,-11.49114 -5.80143,-27.57458 5.68971,-35.92338 11.49113,-8.3488 27.57458,-5.80143 35.92338,5.6897 8.3488,11.49114 5.80143,27.57458 -5.68971,35.92338 -11.49113,8.3488 -27.57458,5.80143 -35.92338,-5.6897 z m 80.46148,-83.70391 c -13.50864,-4.38922 -20.90139,-18.89831 -16.51216,-32.40695 4.38922,-13.50864 18.89831,-20.90138 32.40695,-16.51216 13.50864,4.38922 20.90138,18.89831 16.51216,32.40695 -4.38922,13.50864 -18.89831,20.90139 -32.40695,16.51216 z m 15.89479,-115.01195 c -13.50864,4.38922 -28.01773,-3.00352 -32.40695,-16.51216 -4.38923,-13.50864 3.00352,-28.01773 16.51216,-32.40695 13.50864,-4.38923 28.01773,3.00352 32.40695,16.51216 4.38922,13.50864 -3.00352,28.01773 -16.51216,32.40695 z M 490.18941,224.56424 c -8.3488,11.49113 -24.43225,14.0385 -35.92338,5.6897 -11.49114,-8.3488 -14.0385,-24.43224 -5.68971,-35.92338 8.3488,-11.49113 24.43225,-14.0385 35.92338,-5.6897 11.49114,8.3488 14.03851,24.43224 5.68971,35.92338 z"
       transform="matrix(1.0873103,0,0,1.0873103,-31.431708,-31.431708)" />
  </g>
</svg>
