<?xml version="1.0" encoding="UTF-8" standalone="no"?>
<!-- Created with Inkscape (http://www.inkscape.org/) -->

<svg
   width="584.70673"
   height="620.91888"
   viewBox="0 0 584.70673 620.91888"
   version="1.1"
   id="svg1"
   inkscape:version="1.4 (86a8ad7, 2024-10-11)"
   sodipodi:docname="lab.svg"
   xmlns:inkscape="http://www.inkscape.org/namespaces/inkscape"
   xmlns:sodipodi="http://sodipodi.sourceforge.net/DTD/sodipodi-0.dtd"
   xmlns="http://www.w3.org/2000/svg"
   xmlns:svg="http://www.w3.org/2000/svg">
  <sodipodi:namedview
     id="namedview1"
     pagecolor="#ffffff"
     bordercolor="#000000"
     borderopacity="0.25"
     inkscape:showpageshadow="2"
     inkscape:pageopacity="0.0"
     inkscape:pagecheckerboard="0"
     inkscape:deskcolor="#2b2b2b"
     inkscape:document-units="px"
     inkscape:zoom="0.56278518"
     inkscape:cx="184.7952"
     inkscape:cy="313.61877"
     inkscape:window-width="1920"
     inkscape:window-height="1017"
     inkscape:window-x="1912"
     inkscape:window-y="-8"
     inkscape:window-maximized="1"
     inkscape:current-layer="layer1" />
  <defs
     id="defs1">
    <inkscape:path-effect
       effect="mirror_symmetry"
       start_point="360,36.333895"
       end_point="360,657.25278"
       center_point="360,346.79334"
       id="path-effect20"
       is_visible="true"
       lpeversion="1.2"
       lpesatellites=""
       mode="vertical"
       discard_orig_path="false"
       fuse_paths="false"
       oposite_fuse="false"
       split_items="false"
       split_open="false"
       link_styles="false" />
    <inkscape:path-effect
       effect="mirror_symmetry"
       start_point="360,36.333895"
       end_point="360,657.25278"
       center_point="360,346.79334"
       id="path-effect16"
       is_visible="true"
       lpeversion="1.2"
       lpesatellites=""
       mode="vertical"
       discard_orig_path="false"
       fuse_paths="false"
       oposite_fuse="false"
       split_items="false"
       split_open="false"
       link_styles="false" />
    <inkscape:path-effect
       effect="copy_rotate"
       starting_point="385.765,360"
       origin="360,360"
       id="path-effect14"
       is_visible="true"
       lpeversion="1.2"
       lpesatellites=""
       method="normal"
       num_copies="10"
       starting_angle="0"
       rotation_angle="36"
       gap="-0.01"
       copies_to_360="true"
       mirror_copies="false"
       split_items="false"
       link_styles="false" />
    <inkscape:path-effect
       effect="copy_rotate"
       starting_point="361,360"
       origin="360,360"
       id="path-effect6"
       is_visible="true"
       lpeversion="1.2"
       lpesatellites=""
       method="normal"
       num_copies="20"
       starting_angle="0"
       rotation_angle="18"
       gap="-0.01"
       copies_to_360="true"
       mirror_copies="false"
       split_items="false"
       link_styles="false" />
    <inkscape:path-effect
       effect="copy_rotate"
       starting_point="372.307,360"
       origin="360,360"
       id="path-effect5"
       is_visible="true"
       lpeversion="1.2"
       lpesatellites=""
       method="normal"
       num_copies="10"
       starting_angle="0"
       rotation_angle="36"
       gap="-0.01"
       copies_to_360="true"
       mirror_copies="false"
       split_items="false"
       link_styles="false" />
    <inkscape:path-effect
       effect="copy_rotate"
       starting_point="385.765,360"
       origin="360,360"
       id="path-effect4"
       is_visible="true"
       lpeversion="1.2"
       lpesatellites=""
       method="normal"
       num_copies="10"
       starting_angle="0"
       rotation_angle="36"
       gap="-0.01"
       copies_to_360="true"
       mirror_copies="false"
       split_items="false"
       link_styles="false" />
  </defs>
  <g
     inkscape:label="Layer 1"
     inkscape:groupmode="layer"
     id="layer1"
     transform="translate(-67.646637,-36.333895)">
    <circle
       style="fill:#ffffff;fill-opacity:1;stroke:#2e222f;stroke-width:8;stroke-linecap:round"
       id="path1"
       cx="360"
       cy="360"
       r="288.35336" />
    <circle
       style="fill:#ffffff;fill-opacity:1;stroke:#2e222f;stroke-width:8;stroke-linecap:round"
       id="path3"
       cx="360"
       cy="360"
       r="248.77547" />
    <ellipse
       style="fill:#ffffff;fill-opacity:1;stroke:#2e222f;stroke-width:8;stroke-linecap:round;stroke-dasharray:none"
       id="path3-7"
       cx="360"
       cy="360"
       rx="153.578"
       ry="153.57759" />
    <path
       id="path3-8"
       style="fill:#2e222f;fill-opacity:1;stroke:#2e222f;stroke-width:8;stroke-linecap:round"
       d="m 487.52884,360 c 0,70.43223 -57.09661,127.52883 -127.52884,127.52883 -70.43223,10e-6 -127.52884,-57.0966 -127.52884,-127.52883 0,-70.43223 57.09661,-127.52884 127.52884,-127.52883 70.43223,0 127.52883,57.0966 127.52884,127.52883 z"
       sodipodi:nodetypes="sssss" />
    <path
       style="display:none;fill:#60b37e;fill-opacity:1;stroke:#000000;stroke-width:7.35761;stroke-linecap:round;stroke-dasharray:none"
       id="path4"
       inkscape:path-effect="#path-effect14"
       sodipodi:type="arc"
       sodipodi:cx="360"
       sodipodi:cy="173.90675"
       sodipodi:rx="25.7183"
       sodipodi:ry="25.7183"
       d="m 385.7183,173.90675 c 0,14.20383 -11.51448,25.7183 -25.7183,25.7183 -14.20382,0 -25.7183,-11.51447 -25.7183,-25.7183 0,-14.20382 11.51448,-25.7183 25.7183,-25.7183 14.20382,0 25.7183,11.51448 25.7183,25.7183 z m -114.29462,20.42381 c 8.34879,11.49114 5.80143,27.57458 -5.68971,35.92338 -11.49113,8.3488 -27.57458,5.80143 -35.92338,-5.6897 -8.3488,-11.49114 -5.80143,-27.57458 5.68971,-35.92338 11.49113,-8.3488 27.57458,-5.80143 35.92338,5.6897 z m -80.46148,83.70391 c 13.50864,4.38922 20.90139,18.89831 16.51216,32.40695 -4.38922,13.50864 -18.89831,20.90138 -32.40695,16.51216 -13.50864,-4.38922 -20.90138,-18.89831 -16.51216,-32.40695 4.38922,-13.50864 18.89831,-20.90139 32.40695,-16.51216 z m -15.89479,115.01195 c 13.50864,-4.38922 28.01773,3.00352 32.40695,16.51216 4.38923,13.50864 -3.00352,28.01773 -16.51216,32.40695 -13.50864,4.38923 -28.01773,-3.00352 -32.40695,-16.51216 -4.38922,-13.50864 3.00352,-28.01773 16.51216,-32.40695 z m 54.74318,102.38934 c 8.3488,-11.49113 24.43225,-14.0385 35.92338,-5.6897 11.49114,8.3488 14.0385,24.43224 5.68971,35.92338 -8.3488,11.49113 -24.43225,14.0385 -35.92338,5.6897 -11.49114,-8.3488 -14.03851,-24.43224 -5.68971,-35.92338 z m 104.47111,50.65749 c 0,-14.20383 11.51448,-25.7183 25.7183,-25.7183 14.20382,0 25.7183,11.51447 25.7183,25.7183 0,14.20382 -11.51448,25.7183 -25.7183,25.7183 -14.20382,0 -25.7183,-11.51448 -25.7183,-25.7183 z m 114.29462,-20.42381 c -8.34879,-11.49114 -5.80143,-27.57458 5.68971,-35.92338 11.49113,-8.3488 27.57458,-5.80143 35.92338,5.6897 8.3488,11.49114 5.80143,27.57458 -5.68971,35.92338 -11.49113,8.3488 -27.57458,5.80143 -35.92338,-5.6897 z m 80.46148,-83.70391 c -13.50864,-4.38922 -20.90139,-18.89831 -16.51216,-32.40695 4.38922,-13.50864 18.89831,-20.90138 32.40695,-16.51216 13.50864,4.38922 20.90138,18.89831 16.51216,32.40695 -4.38922,13.50864 -18.89831,20.90139 -32.40695,16.51216 z m 15.89479,-115.01195 c -13.50864,4.38922 -28.01773,-3.00352 -32.40695,-16.51216 -4.38923,-13.50864 3.00352,-28.01773 16.51216,-32.40695 13.50864,-4.38923 28.01773,3.00352 32.40695,16.51216 4.38922,13.50864 -3.00352,28.01773 -16.51216,32.40695 z M 490.18941,224.56424 c -8.3488,11.49113 -24.43225,14.0385 -35.92338,5.6897 -11.49114,-8.3488 -14.0385,-24.43224 -5.68971,-35.92338 8.3488,-11.49113 24.43225,-14.0385 35.92338,-5.6897 11.49114,8.3488 14.03851,24.43224 5.68971,35.92338 z"
       transform="matrix(1.0873103,0,0,1.0873103,-31.431708,-31.431708)" />
    <path
       style="display:inline;fill:#332d58;fill-opacity:1;stroke:#2e222f;stroke-width:8;stroke-linecap:round;stroke-dasharray:none"
       d="M 360,72.283507 V 110.56687 M 271.09071,86.365354 282.92092,122.775 m -92.03643,4.45747 22.50239,30.97189 m -86.15441,32.68013 30.97189,22.50239 M 86.365354,271.09071 122.775,282.92092 M 72.283507,360 H 110.56687 M 86.365354,448.90929 122.775,437.07908 m 4.45747,92.03643 30.97189,-22.50239 m 32.68013,86.15441 22.50239,-30.97189 m 57.70383,71.83901 11.83021,-36.40965 M 360,647.71649 v -38.28336 m 88.90929,24.20152 -11.83021,-36.40965 m 92.03643,-4.45747 -22.50239,-30.97189 m 86.15441,-32.68013 -30.97189,-22.50239 M 633.63465,448.90929 597.225,437.07908 M 647.71649,360 h -38.28336 m 24.20152,-88.90929 -36.40965,11.83021 m -4.45747,-92.03643 -30.97189,22.50239 m -32.68013,-86.15441 -22.50239,30.97189 M 448.90929,86.365354 437.07908,122.775"
       id="path5"
       sodipodi:nodetypes="cc"
       inkscape:path-effect="#path-effect6"
       inkscape:original-d="M 360,72.283507 V 110.56687" />
    <g
       id="g16"
       inkscape:path-effect="#path-effect16"
       style="display:inline;fill:#c7dcd0;stroke:#2e222f">
      <path
         style="fill:#ffffff;fill-opacity:1;stroke:#2e222f;stroke-width:8;stroke-linecap:round;stroke-dasharray:none"
         d="m 531.2862,38.202854 c 0,0 21.17631,40.070713 36.8702,55.971625 15.20366,15.404211 53.75052,36.425971 53.75052,36.425971 0,0 -53.4071,-3.76801 -70.63086,-21.32252 C 534.03981,91.710703 531.2862,38.202854 531.2862,38.202854 Z m -342.5724,0 c 0,0 -21.17631,40.070713 -36.8702,55.971625 -15.20366,15.404211 -53.75052,36.425971 -53.75052,36.425971 0,0 53.4071,-3.76801 70.63086,-21.32252 17.23625,-17.567227 19.98986,-71.075076 19.98986,-71.075076 z"
         id="path14"
         sodipodi:nodetypes="cacac"
         inkscape:original-d="m 531.2862,38.202854 c 0,0 21.17631,40.070713 36.8702,55.971625 15.20366,15.404211 53.75052,36.425971 53.75052,36.425971 0,0 -53.4071,-3.76801 -70.63086,-21.32252 C 534.03981,91.710703 531.2862,38.202854 531.2862,38.202854 Z" />
      <path
         style="fill:#ffffff;fill-opacity:1;stroke:#2e222f;stroke-width:8;stroke-linecap:round;stroke-dasharray:none"
         d="M 597.03064,58.636939 567.71218,91.953381 M 122.96936,58.636939 152.28782,91.953381"
         id="path15"
         sodipodi:nodetypes="cc"
         inkscape:original-d="M 597.03064,58.636939 567.71218,91.953381" />
      <path
         style="fill:#ffffff;fill-opacity:1;stroke:#2e222f;stroke-width:8;stroke-linecap:round;stroke-dasharray:none"
         d="m 528.843,125.49193 22.87728,-14.43712 16.88033,7.99594 -11.5497,28.43003 z m -337.686,0 -22.87728,-14.43712 -16.88033,7.99594 11.5497,28.43003 z"
         id="path16"
         sodipodi:nodetypes="ccccc"
         inkscape:original-d="m 528.843,125.49193 22.87728,-14.43712 16.88033,7.99594 -11.5497,28.43003 z" />
    </g>
    <g
       id="g20"
       inkscape:path-effect="#path-effect20"
       style="display:inline;fill:#c7dcd0;stroke:#2e222f">
      <path
         style="fill:#ffffff;fill-opacity:1;stroke:#2e222f;stroke-width:8;stroke-linecap:round;stroke-dasharray:none"
         d="m 554.71902,623.19509 47.11656,-0.62822 8.79509,16.96196 -52.77055,-2.51288 z m -389.43804,0 -47.11656,-0.62822 -8.79509,16.96196 52.77055,-2.51288 z"
         id="path20"
         inkscape:original-d="m 554.71902,623.19509 47.11656,-0.62822 8.79509,16.96196 -52.77055,-2.51288 z" />
      <path
         style="fill:#ffffff;fill-opacity:1;stroke:#2e222f;stroke-width:8;stroke-linecap:round;stroke-dasharray:none"
         d="m 543.41104,603.72025 23.8724,-33.29571 12.56441,19.47485 -28.26994,29.52638 z m -366.82208,0 -23.8724,-33.29571 -12.56441,19.47485 28.26994,29.52638 z"
         id="path19"
         inkscape:original-d="m 543.41104,603.72025 23.8724,-33.29571 12.56441,19.47485 -28.26994,29.52638 z" />
      <path
         style="fill:#ffffff;fill-opacity:1;stroke:#2e222f;stroke-width:8;stroke-linecap:round;stroke-dasharray:none"
         d="m 519.53865,599.3227 18.84663,53.39877 h 31.41104 l -36.43681,-62.19386 z m -319.0773,0 -18.84663,53.39877 h -31.41104 l 36.43681,-62.19386 z"
         id="path18"
         inkscape:original-d="m 519.53865,599.3227 18.84663,53.39877 h 31.41104 l -36.43681,-62.19386 z" />
      <path
         style="fill:#ffffff;fill-opacity:1;stroke:#2e222f;stroke-width:8;stroke-linecap:round;stroke-dasharray:none"
         d="m 581.03875,542.8359 61.30226,110.16637 -24.87628,-0.88844 -53.30631,-88.84385 z m -442.0775,0 -61.30226,110.16637 24.87628,-0.88844 53.30631,-88.84385 z"
         id="path17"
         inkscape:original-d="m 581.03875,542.8359 61.30226,110.16637 -24.87628,-0.88844 -53.30631,-88.84385 z" />
    </g>
  </g>
</svg>
